<?xml version="1.0" encoding="utf-8"?>
<!-- Generator: Adobe Illustrator 16.0.0, SVG Export Plug-In . SVG Version: 6.00 Build 0)  -->
<!DOCTYPE svg PUBLIC "-//W3C//DTD SVG 1.1//EN" "http://www.w3.org/Graphics/SVG/1.1/DTD/svg11.dtd">
<svg version="1.1" id="Warstwa_1" xmlns="http://www.w3.org/2000/svg" xmlns:xlink="http://www.w3.org/1999/xlink" x="0px" y="0px"
	 width="2025.239px" height="1170.954px" viewBox="0 0 2025.239 1170.954" enable-background="new 0 0 2025.239 1170.954"
	 xml:space="preserve">
<g>
	<g>
		<path fill="#F9C7BB" d="M95.079,1165.069c0,0-115.028-324.994,53.25-519.051c217.049-250.295,497.532-41.078,602.777-47.178
			c105.246-6.102,109.574-278.086,368.355-433.881c222.309-133.837,632.484,135.614,547.295,527.989
			c-64.767,298.316,362.83,143.191,292.666,472.75L95.079,1165.069z"/>
		<path fill="#FFFFFF" d="M1648.778,1002.94c-15.394,98.646-116.057,161.467-219.308,161.467h-204.503l15.994-574.965
			c0,0,195.123-62.629,244.127-3.052c42.936,52.192,159.368,258.794,165.492,381.079
			C1651.194,979.743,1650.559,991.586,1648.778,1002.94z"/>
		<path fill="#DED8DD" d="M1105.909,650.325c0,0,275.873-140.811,328.128-48.828c27.745,48.838,104.097,243.685,109.732,365.967
			c5.478,118.815-97.457,196.939-203.346,196.939h-188.065L1105.909,650.325z"/>
		<path fill="#F7F0F7" d="M1157.779,728.422c-2.326,11.968-24.661,23.074-57.808,32.898c-5.842,1.735-12.014,3.426-18.48,5.082
			c-112.811,28.813-312.629,44.898-331.676,36.4c-26.318-11.739-187.851-585.662-187.851-585.662s154.195-5.796,276.65-8.62
			c41.891-0.953,80.063-1.565,107.084-1.487c3.29,0.012,6.387,0.228,9.29,0.647c11.695,1.667,20.374,6.545,27.247,13.941
			c19.717,21.189,24.605,63.037,42.857,109.296c18.047,45.738,40.201,102.818,61.209,159.47
			c5.412,14.598,10.754,29.165,15.928,43.514c1.463,4.051,2.904,8.077,4.344,12.081
			C1137.622,632.866,1161.533,709.038,1157.779,728.422z"/>
		<path fill="#DED8DD" d="M1099.971,761.321c33.146-9.824,55.481-20.931,57.808-32.898c3.754-19.385-20.157-95.557-51.206-182.439
			c-1.439-4.003-2.881-8.029-4.344-12.079c-5.174-14.351-10.516-28.917-15.928-43.516c-21.008-56.65-43.162-113.732-61.209-159.47
			c-18.252-46.259-23.141-88.107-42.857-109.296c-5.482-5.899-12.119-10.19-20.514-12.534c1.291,1.739,2.715,3.351,4.264,4.834
			c-2.519,15.321-6.229,26.799-9.563,35.306c-2.024-2.077-4.665-3.503-7.599-3.957c-5.55-0.861-12.77-1.316-17.516-1.538
			c-1.434-0.067-2.613,0.774-3.144,1.935c-23.494-1.55-56.815,5.879-58.266,52.332c-0.792,25.343,3.403,60.151,9.188,94.684
			c3.518,36.294,10.544,79.97,23.596,129.91c-2.36,13.27-6.854,29.918-11.871,47.457c-39.927,8.394-71.437,19.391-71.437,19.391
			l-5.487,214.408c72.908-4.025,190.551-17.766,267.604-37.447C1087.958,764.747,1094.129,763.056,1099.971,761.321z"/>
		<path fill="#FFFFFF" d="M1648.778,1002.94c-15.394,98.646-116.183,162.783-219.433,162.783l-101.257-0.057
			C1394.981,1120.325,1456.538,979.334,1648.778,1002.94z"/>
		<path fill="#F7F0F7" d="M1487.743,1076.061c-39.475,54.846-100.028,90.002-167.479,88.912l-289.965,0.146l-138.927,0.068
			l156.304-514.785c0,0,395.622-39.363,444.4,13.123c22.652,24.369,35.369,134.717,42.494,245.955
			C1538.585,972.2,1520.333,1030.834,1487.743,1076.061z"/>
		<path fill="#DED8DD" d="M1487.743,1076.637c-39.475,54.85-99.834,90.15-167.283,89.061h-290.16
			c34.119-28.643,141.432-109.918,256.332-106.074C1373.727,1062.538,1442.89,1061.292,1487.743,1076.637z"/>
		<g>
			<path fill="#E57F6B" d="M1478.809,1073.034c-1.277,13.842,17.993,17.209,40.313,18.318c22.318,1.113,15.574,5.684,46.16,11.223
				c30.585,5.541,42.844-2.829,45.058-6.963c1.972-3.666-12.249-9.4-27.403-15.882c-1.906-0.808-3.816-1.644-5.729-2.478
				c-17.055-7.5-26.625-22.797-39.922-36.977c-12.597-13.438-24.557-56.446-24.557-56.446l-41.564-8.878
				c0,0,11.672,38.712,15.723,55.238c2.383,9.721-1.133,20.588-4.255,28.859C1480.952,1063.551,1479.252,1068.155,1478.809,1073.034
				z"/>
		</g>
		<path fill="#E57F6B" d="M1064.908,580.15c0,0,276.197-20.787,328.194,12.03c51.996,32.815,127.276,417.252,127.276,417.252
			s2.966,1.931-8.528,3.176c-10.689,1.158-31.376-5.965-31.376-5.965s-93.124-161.48-97.976-216.957
			c-1.482-16.947-2.004-31.662-6.822-48.01c-1.664-5.646-5.325-10.49-10.257-13.705c-15.96-10.407-32.615-16.682-41.7-17.168
			c-19.223-1.033-258.85,29.131-295.096-34.724c-36.246-63.856-6.281-127.068-6.281-127.068L1064.908,580.15z"/>
		<g>
			<path fill="#EB9B82" d="M1373.124,1085.081c-1.276,13.84,17.993,17.207,40.313,18.32c22.32,1.109,15.574,5.68,46.16,11.221
				c30.586,5.539,42.844-2.83,45.058-6.965c1.972-3.664-12.249-9.398-27.404-15.879c-1.907-0.811-3.816-1.646-5.727-2.479
				c-17.056-7.502-26.626-22.797-39.925-36.979c-12.595-13.434-24.553-56.447-24.553-56.447l-41.566-8.875
				c0,0,11.671,38.713,15.723,55.238c2.383,9.719-1.133,20.586-4.254,28.858C1375.264,1075.596,1373.567,1080.202,1373.124,1085.081
				z"/>
		</g>
		<path fill="#EB9B82" d="M1010.812,564.95c0,0,245.356,11.612,296.037,46.429c50.681,34.813,111.196,420.137,111.196,420.137
			s2.633,3.799-8.902,4.596c-10.727,0.738-31.956-8.936-31.956-8.936s-100.433-160.469-102.946-217.561
			c-1.066-24.235-1.08-29.295-1.077-61.057c0.001-15.018-27.548-21.107-40.261-21.348c-19.247-0.363-259.788,19.035-293.521-46.183
			C905.649,615.809,1010.812,564.95,1010.812,564.95z"/>
		<path fill="#EC6664" d="M1216.073,756.293c0,0,27.516-187.497,90.776-144.914c16.403-15.047,41.032-29.23,78.808-22.948
			l-153.473-20.645l-139.45,26.392l36.704,135.386L1216.073,756.293z"/>
		<path fill="#EB9B82" d="M1000.5,249.029c0,0,21.455,7.972,44.299,10.142c15.525,1.475,32.303-3.849,41.053-0.192
			c21.623,9.04,19.354,47.325-26.02,40.234C1014.458,292.123,997.319,260.383,1000.5,249.029z"/>
		<g>
			<path fill="#BFD3EF" d="M1378.484,587.467l7.173,0.964C1383.209,588.026,1380.821,587.708,1378.484,587.467z"/>
			<path fill="#E94847" d="M1275.268,608.782c9.332-5.277,19.84-5.307,31.581,2.598c15.341-14.074,37.88-27.389,71.635-23.912
				l-146.3-19.681l-139.45,26.392L1119.526,693C1138.394,656.725,1181.532,606.436,1275.268,608.782z"/>
		</g>
		<path fill="#E57F6B" d="M1357.459,557.563c-4.385-1.878-38.234,4.28-47.926,6.098c-30.682-6.007-131.506-26.159-136.414-32.47
			c-5.793-7.448-18.436-234.399-32.918-238.184c0,0-28.484-17.298-56.026,15.518c-27.544,32.815,19.574,267.399,60.384,279.45
			c45.33,13.387,176.283-2.145,176.283-2.145v-0.001c10.758,3.675,29.561,5.743,39.546,9.071c13.178,4.393,24.892,0.73,27.819-4.393
			C1391.137,585.381,1362.584,559.758,1357.459,557.563z"/>
		<path fill="#EB9B82" d="M1083.935,276.948c0.265,0.141,6.472,32.935-23.239,31.623c-19.502-0.859-61.565-24.46-57.852-41.159
			c1.766-7.939,16.504-28.533,19.469-75.542l3.551,0.95l59.697,16.012c0,0-2.645,18.948-3.883,36.88
			C1080.633,260.766,1080.594,275.11,1083.935,276.948z"/>
		<path fill="#E57F6B" d="M1085.561,208.831c0,0-2.645,18.948-3.883,36.88c-33.788-3.211-49.623-35.286-55.814-52.892
			L1085.561,208.831z"/>
		<path fill="#31272B" d="M1011.651,202.41c0,0-20.246-26.37-26.668-49.909c-4.585-16.804-1.632-80.903,62.816-77.56
			c0,0,18.643,0.143,37.076,10.297c14.659,8.074,36.424,26.406,19.148,83.676l-4.096,19.188L1011.651,202.41z"/>
		<path fill="#EB9B82" d="M1111.476,174.976c-1.634,26.54-7.144,53.882-18.696,55.848c0,0-4.16,0.45-10.641,0.549
			c-21.894,0.32-70.23-3.344-73.764-41.774c-2.932-31.935-9.496-56.719-0.417-72.397c5.063-8.767,15.021-14.681,33.23-17.399
			c50.767-7.582,62.433,10.512,68.007,26.757C1111.642,133.709,1112.754,154.09,1111.476,174.976z"/>
		<g>
			<path fill="#EC6664" d="M1267.508,597.948c0.37,9.377-23.429-4.041-46.588-1.088c-9.264,1.182-27.344-8.924-43.573-17.702
				c0.411,1.749,0.021,3.471-1.388,5.159c-6.488,7.763-26.75,10.139-48.404,13.703c-17.03,2.82-34.936,6.342-47.662,13.818
				c-28.902,16.967-123.342,74.33-151.019,71.713c-10.729-1.007-8.722-21.498-2.224-48.67c9.523-39.939,28.716-94.306,31.342-122.56
				c-7.691-31.24-36.191-151.687-34.235-214.321c1.925-61.686,60.059-54.561,76.739-48.969c0,0,19.203,41.906,56.631,41.906
				c37.406,0,28.717-31.95,28.717-31.95s31.391,7.885,42.215,12.694c34.842,15.48,44.033,210.312,48.432,248.252
				c0.41,3.544,3.061,6.416,6.556,7.127c19.444,3.96,84.607,17.946,107.711,31.928
				C1290.757,558.989,1266.581,574.367,1267.508,597.948z"/>
			<path fill="#F4974A" d="M1000.885,247.018C1000.9,246.94,1000.902,246.931,1000.885,247.018L1000.885,247.018z"/>
			<path fill="#F4974A" d="M1000.731,247.816c0.002-0.013,0.006-0.032,0.01-0.046
				C1000.737,247.786,1000.734,247.801,1000.731,247.816z"/>
		</g>
		<path fill="#E94847" d="M1133.129,513.029l10.18,59.605l68.455,15.797C1211.764,588.431,1148.927,569.401,1133.129,513.029z"/>
		<path fill="#EB9B82" d="M1215.268,564.938c-4.385-1.878-38.234,4.28-47.928,6.1c-30.68-6.007-131.504-26.159-136.412-32.471
			c-5.793-7.449-18.436-234.399-32.918-238.184c0,0-28.484-17.298-56.027,15.518c-27.543,32.815,19.574,267.399,60.385,279.452
			c45.33,13.387,176.281-2.145,176.281-2.145v-0.002c10.76,3.674,29.563,5.742,39.547,9.07c13.178,4.393,24.892,0.73,27.82-4.393
			C1248.944,592.761,1220.393,567.137,1215.268,564.938z"/>
		<path fill="#FFFFFF" d="M1247.45,1008.102c-16.584,95.67-107.583,156.305-200.863,156.305H858.52l14.714-574.965
			c0,0,179.435-62.629,224.503-3.052c39.486,52.192,146.56,258.794,152.197,381.079
			C1250.581,981.615,1249.708,995.181,1247.45,1008.102z"/>
		<path fill="#FFFFFF" d="M1247.45,1009.393c-16.584,95.672-107.583,156.305-200.863,156.305H896.092
			C966.536,1117.952,1061.385,986.026,1247.45,1009.393z"/>
		<path fill="#DED8DD" d="M623.174,1165.698c-77.874-0.521-139.007-24.822-178.602-91.869
			c-28.845-48.723-41.658-112.561-48.104-168.789c-3.708-32.324-5.959-68.108-6.825-107.598c-0.499-22.928-0.536-47.09-0.11-72.553
			c0.664-40.682,2.498-84.672,5.44-132.15c4.132-66.661,10.45-140.208,18.795-221.152c7.61-73.938,16.398-125.62,29.171-137.397
			c18.841-17.365,58.128-24.356,85.474-27.151c0.008,0,0.008,0,0.019,0h0.037c0.009,0,0.009,0,0.018,0
			c26.824-2.814,45.386-4.232,66.631,8.9c16.768,10.329,29.992,27.493,36.42,48.833c21.82,72.554,60.784,202.276,101.336,337.958
			c0.212,0.672,0.415,1.354,0.619,2.035c2.323,7.793,4.657,15.617,7,23.436c0.23,0.793,0.47,1.588,0.72,2.381
			c0.109,0.394,0.24,0.801,0.24,0.801s0.464,0.24,0.815,0.084c1.956-0.879,4.326-1.943,6.406-2.851
			c0.074-0.046,0.156-0.083,0.249-0.12c56.917-25.215,137.81-55.518,199.999-59.328h0.008c32.241-1.972,68.533,2.616,84.441,30.869
			c34.272,60.553,104.506,253.998,109.729,367.033c5.207,112.678-86.789,189.385-187.189,196.918
			c-5.978,0.428-11.139,1.711-16.158,1.711H623.174z"/>
		<path fill="#FFFFFF" d="M654.229,654.758c0,0-96.526-393.251-103.495-426.301c-3.1-14.73-12.668-20.054-22.308-21.424
			c16.966-1.735,29.311-1.866,29.311-1.866c33.397,0,63.079,23.902,73.798,59.431c23.375,77.491,67.085,221.341,110.69,366.887
			L654.229,654.758z"/>
		<path fill="#EC6664" d="M1035.104,535.469c0,0-7.002-277.191-61.4-261.395l-39.945-1.977c0,0-21.511,113.861,36.147,296.876
			c16.725,39.208,148.681,35.264,148.681,35.264l14.543-47.761L1035.104,535.469z"/>
		<path fill="#E94847" d="M1010.708,354.351l11.12,166.085c0.511,7.615,5.889,14.027,13.3,15.855l84.716,20.885l0,0
			c-73.249-27.921-78.558-58.751-87.831-102.445L1010.708,354.351z"/>
		<path fill="#E94847" d="M981.94,248.205c-0.857-2.217,0.852-4.582,3.227-4.471c4.747,0.222,11.967,0.677,17.518,1.538
			c4.32,0.669,8.039,3.41,10.024,7.306c15.448,30.31,106.11,202.092,116.037,220.898c0.575,1.088,0.8,2.326,0.646,3.547l-3.58,28.4
			c-0.075,0.601-0.859,0.778-1.186,0.27C1113.816,488.825,1015.083,333.814,981.94,248.205z"/>
		<path fill="#E94847" d="M1082,258.679l-22.676,84.237l15.438,29.344l29.736-107.104c0.348-1.253-0.43-2.54-1.701-2.816
			l-19.77-4.287C1082.574,257.955,1082.122,258.23,1082,258.679z"/>
		<path fill="#E57F6B" d="M1006.301,172.281l1.25,10.431c63.1-36.941,75.748-68.252,75.748-68.252L1006.301,172.281z"/>
		<path fill="#E94847" d="M1122.356,349.655c0,0,14.164,46.33,7.082,106.108C1129.438,455.763,1155.346,407.958,1122.356,349.655z"
			/>
		<path fill="#A84D3C" d="M995.065,182.24c0,0,67.448-30.315,88.234-67.78l0,0c14.404,11.734,24.46,27.954,28.564,46.072
			l0.123,0.541c0,0,6.41,0.903,8.186-7.012c1.775-7.915,3.099-51.205-6.646-50.751c0,0-20.464-52.925-28.905-49.953
			c-8.439,2.973-62.818-66.211-93.129-51.23s-27.59,43.633-27.59,43.633s-9.098,22.89-0.274,48.757c0,0-6.974,7.286,7.384,35.549
			C971.012,130.065,964.008,133.356,995.065,182.24z"/>
		<path fill="#94372C" d="M1099.42,80.232c-2.701,16.515-16.121,34.227-16.121,34.227l23.326,30.4
			c3.9-5.72-14.943-32.244-12.98-36.854C1099.192,94.982,1099.42,80.232,1099.42,80.232z"/>
		<path fill="#94372C" d="M975.214,129.218c0,0,55.296-10.667,105.819-72.111C1081.034,57.106,1051.927,114.339,975.214,129.218z"/>
		<path fill="#94372C" d="M970.702,90.398c0,0,50.66-16.75,67.646-62.248C1038.348,28.15,1030.768,75.43,970.702,90.398z"/>
		<path fill="#94372C" d="M972.426,41.047c0,0,19.059,8.432,47.756,1.978C1020.182,43.024,991.741,56.255,972.426,41.047z"/>
		
			<ellipse transform="matrix(0.9877 -0.1564 0.1564 0.9877 -10.6959 173.2498)" fill="#EB9B82" cx="1095.233" cy="154.572" rx="6.696" ry="11.246"/>
		
			<ellipse transform="matrix(0.9877 -0.1565 0.1565 0.9877 -12.0142 167.7922)" fill="#EB9B82" cx="1059.827" cy="160.212" rx="6.696" ry="11.246"/>
		
			<ellipse transform="matrix(0.9877 -0.1565 0.1565 0.9877 -10.3241 173.6067)" fill="#94372C" cx="1097.433" cy="152.373" rx="6.696" ry="11.246"/>
		
			<ellipse transform="matrix(0.9877 -0.1564 0.1564 0.9877 -11.6433 168.0849)" fill="#A9D2A0" cx="1062.027" cy="158.012" rx="6.697" ry="11.246"/>
		
			<ellipse transform="matrix(0.9877 -0.1564 0.1564 0.9877 -11.6433 168.0849)" fill="#94372C" cx="1062.027" cy="158.012" rx="6.697" ry="11.246"/>
		
			<ellipse transform="matrix(0.9767 -0.2145 0.2145 0.9767 -7.7554 231.1221)" fill="#FFFFFF" cx="1060.961" cy="151.292" rx="0.494" ry="1.435"/>
		
			<ellipse transform="matrix(0.7066 -0.7076 0.7076 0.7066 197.1933 801.7933)" fill="#FFFFFF" cx="1065.49" cy="163.099" rx="0.493" ry="1.437"/>
		
			<ellipse transform="matrix(0.9608 0.2773 -0.2773 0.9608 86.8913 -287.683)" fill="#FFFFFF" cx="1060.676" cy="163.401" rx="0.494" ry="1.436"/>
		
			<ellipse transform="matrix(-0.3443 0.9389 -0.9389 -0.3443 1569.8906 -782.7578)" fill="#FFFFFF" cx="1058.29" cy="156.837" rx="0.494" ry="1.437"/>
		
			<ellipse transform="matrix(0.3452 0.9385 -0.9385 0.3452 844.8893 -897.8557)" fill="#FFFFFF" cx="1065.863" cy="156.534" rx="0.494" ry="1.436"/>
		
			<ellipse transform="matrix(0.9767 -0.2145 0.2145 0.9767 -5.7477 238.5785)" fill="#FFFFFF" cx="1096.319" cy="145.771" rx="0.494" ry="1.436"/>
		
			<ellipse transform="matrix(0.7069 -0.7074 0.7074 0.7069 211.2393 824.8806)" fill="#FFFFFF" cx="1100.847" cy="157.578" rx="0.494" ry="1.436"/>
		
			<ellipse transform="matrix(0.9606 0.278 -0.278 0.9606 87.0887 -298.459)" fill="#FFFFFF" cx="1096.033" cy="157.881" rx="0.494" ry="1.437"/>
		
			<ellipse transform="matrix(-0.346 0.9382 -0.9382 -0.346 1614.0449 -822.4101)" fill="#FFFFFF" cx="1093.646" cy="151.316" rx="0.494" ry="1.437"/>
		
			<ellipse transform="matrix(0.345 0.9386 -0.9386 0.345 863.046 -934.6952)" fill="#FFFFFF" cx="1101.22" cy="151.013" rx="0.494" ry="1.436"/>
		<path opacity="0.4" fill="#F08787" d="M1698.961,1165.188h-440.828c-22.833,0-41.343-18.507-41.343-41.342V986.999h523.515
			v136.848C1740.305,1146.681,1721.795,1165.188,1698.961,1165.188z"/>
		<path opacity="0.4" fill="#F08787" d="M1691.572,1158.59h-426.048c-21.561,0-39.039-17.479-39.039-39.039v-93.637h504.125v93.637
			C1730.61,1141.112,1713.132,1158.59,1691.572,1158.59z"/>
		<g>
			<polygon opacity="0.5" fill="#ED6C6D" points="1441.959,1165.188 1578.444,1165.188 1740.305,1003.33 1740.305,986.999 
				1620.149,986.999 			"/>
			<polygon opacity="0.5" fill="#ED6C6D" points="1391.088,1165.188 1425.78,1165.188 1603.969,986.999 1569.278,986.999 			"/>
			<path opacity="0.5" fill="#ED6C6D" d="M1654.444,1165.188h44.518c22.834,0,41.344-18.507,41.344-41.342v-44.517
				L1654.444,1165.188z"/>
			<path opacity="0.5" fill="#ED6C6D" d="M1293.676,1165.188l178.189-178.189h-112.455l-142.256,142.258
				c2.65,20.273,19.98,35.932,40.979,35.932H1293.676z"/>
		</g>
		<g>
			<g>
				<path fill="#31272B" d="M597.306,897.637c0,0-42.777-49.904-2.639-81.604c0,0,29.319-17.748,53.225-16.307
					c0,0-33.875,56.803-22.916,62.453c10.958,5.649,33.182-66.017,33.182-66.017s66.719-6.472,88.182,3.85
					c0,0-57.036,46.673-45.024,49.452s73.619-43.034,73.619-43.034S837.032,817,833.719,854.88
					c-3.31,37.88-24.707,49.575-34.109,48.569c-9.405-1.005-64.416-22.006-65.614-14.301c-1.198,7.705,31.916,32.887,55.104,34.064
					c0,0-43.78,48.282-72.875,34.346c-29.096-13.932-31.58-36.021-49.717-44.305c-18.137-8.285-33.619-8.264-26.132,0.186
					c7.488,8.45,40.313,16.66,50.686,35.007c10.372,18.347,19.677,30.722-10.425,26.192c-30.104-4.531-79.035-26.557-81.183-51.779
					S597.306,897.637,597.306,897.637z"/>
				<g>
					<path fill="#31272B" d="M803.209,855.901c0,0-168.658-6.5-205.903,41.736c0,0-8.239,24.669-33.585,47.133l-3.952,10.768
						c0,0,29.227-30.814,39.685-32.678C599.454,922.86,583.099,863.102,803.209,855.901z"/>
					<path fill="#31272B" d="M563.721,944.77c0,0-36.201,26.773-38.715,74.608l6.57,0.589c0,0,11.561-49.461,32.458-68.804
						C584.933,931.819,563.721,944.77,563.721,944.77z"/>
				</g>
			</g>
			<g>
				<path fill="#44393D" d="M447.748,834.877c0,0,68.045-38.105,36.291-89.82c0,0-25.404-31.754-52.623-39.92
					c0,0,14.517,77.119,0,78.932c-14.516,1.816-9.979-87.098-9.979-87.098s-71.674-34.475-99.799-31.754
					c0,0,44.455,75.303,29.939,73.49c-14.516-1.816-64.417-78.026-64.417-78.026s-73.488-13.608-85.282,29.94
					s7.258,65.323,18.146,68.047c10.888,2.719,80.746,1.813,78.932,10.885c-1.815,9.074-48.994,23.59-75.304,15.425
					c0,0,29.034,71.673,67.138,68.044c38.105-3.629,49.9-27.217,73.489-29.033c23.588-1.813,40.827,4.537,29.032,10.889
					s-51.713,2.082-70.767,18.279s-34.476,26.176,0.907,33.436c35.384,7.258,98.892,2.721,111.594-24.496
					C447.748,834.877,447.748,834.877,447.748,834.877z"/>
				<g>
					<path fill="#31272B" d="M235.447,704.233c0,0,190.526,61.691,212.3,130.645c0,0-0.907,30.846,18.145,66.23v13.607
						c0,0-19.96-46.269-30.847-52.619C435.046,862.096,477.687,802.215,235.447,704.233z"/>
					<path fill="#31272B" d="M465.893,901.108c0,0,29.382,44.619,12.632,98.932l-7.559-2.031c0,0,7.338-59.822-8.035-89.908
						C447.558,878.01,465.893,901.108,465.893,901.108z"/>
				</g>
			</g>
			<g>
				<path fill="#44393D" d="M556.001,782.325c0,0-89.696-50.23-47.838-118.396c0,0,33.486-41.859,69.366-52.623
					c0,0-19.136,101.654,0,104.047c19.135,2.393,13.155-114.811,13.155-114.811s94.48-45.446,131.555-41.857
					c0,0-58.602,99.263-39.466,96.871c19.135-2.393,84.911-102.85,84.911-102.85s96.872-17.94,112.418,39.465
					c15.549,57.404-9.568,86.107-23.92,89.695c-14.35,3.588-106.438,2.391-104.045,14.352c2.392,11.959,64.581,31.094,99.262,20.33
					c0,0-38.27,94.481-88.499,89.698c-50.229-4.786-65.777-35.88-96.871-38.272c-31.094-2.391-53.818,5.98-38.27,14.352
					c15.547,8.372,68.168,2.742,93.284,24.094c25.114,21.352,45.445,34.508-1.196,44.074c-46.642,9.569-130.358,3.59-147.102-32.289
					S556.001,782.325,556.001,782.325z"/>
				<g>
					<path fill="#31272B" d="M835.852,610.108c0,0-251.148,81.324-279.851,172.217c0,0,1.196,40.662-23.918,87.304v17.938
						c0,0,26.31-60.992,40.662-69.363C572.745,818.204,516.535,739.27,835.852,610.108z"/>
					<path fill="#31272B" d="M532.083,869.628c0,0-38.732,58.817-16.651,130.411l9.965-2.676c0,0-9.673-78.857,10.592-118.52
						C556.251,839.182,532.083,869.628,532.083,869.628z"/>
				</g>
			</g>
			<path fill="#A84D3C" d="M728.677,979.597c0,97.033-78.665,175.696-175.699,175.696c-20.26,0-39.716-3.428-57.821-9.74
				c-68.631-23.907-117.876-89.184-117.876-165.956H728.677z"/>
			<path fill="#A84D3C" d="M731.105,1164.241H374.852c0-5.988,2.429-11.41,6.35-15.332s9.343-6.35,15.333-6.35h312.898
				C721.399,1142.559,731.105,1152.264,731.105,1164.241z"/>
			<rect x="371.501" y="979.595" fill="#A84D3C" width="361.172" height="5.388"/>
		</g>
		<path fill="#31272B" d="M2021.67,1170.954H3.57c-1.964,0-3.57-1.854-3.57-4.119l0,0c0-2.268,1.606-4.12,3.57-4.12h2018.1
			c1.963,0,3.568,1.853,3.568,4.12l0,0C2025.239,1169.1,2023.633,1170.954,2021.67,1170.954z"/>
	</g>
</g>
</svg>
